<?xml version="1.0" encoding="UTF-8"?>
<svg version="1.1" xmlns="http://www.w3.org/2000/svg" width="64" height="64">
<path d="M0 0 C21.12 0 42.24 0 64 0 C64 21.12 64 42.24 64 64 C42.88 64 21.76 64 0 64 C0 42.88 0 21.76 0 0 Z " fill="#030202" transform="translate(0,0)"/>
<path d="M0 0 C21.12 0 42.24 0 64 0 C64 21.12 64 42.24 64 64 C42.88 64 21.76 64 0 64 C0 42.88 0 21.76 0 0 Z M25 2 C25 4.31 25 6.62 25 9 C18.73 9 12.46 9 6 9 C6 24.18 6 39.36 6 55 C23.16 55 40.32 55 58 55 C58 39.82 58 24.64 58 9 C53.05 9 48.1 9 43 9 C43 6.69 43 4.38 43 2 C37.06 2 31.12 2 25 2 Z " fill="#000000" transform="translate(0,0)"/>
<path d="M0 0 C5.94 0 11.88 0 18 0 C18 2.31 18 4.62 18 7 C22.95 7 27.9 7 33 7 C33 18.22 33 29.44 33 41 C32.34 41 31.68 41 31 41 C31 30.44 31 19.88 31 9 C15.16 9 -0.68 9 -17 9 C-17 22.86 -17 36.72 -17 51 C-1.16 51 14.68 51 31 51 C31 48.36 31 45.72 31 43 C31.66 43 32.32 43 33 43 C33 46.3 33 49.6 33 53 C15.84 53 -1.32 53 -19 53 C-19 37.82 -19 22.64 -19 7 C-12.73 7 -6.46 7 0 7 C0 4.69 0 2.38 0 0 Z " fill="#FFFCFC" transform="translate(25,2)"/>
<path d="M0 0 C16.83 0 33.66 0 51 0 C51 0.66 51 1.32 51 2 C50.34 2 49.68 2 49 2 C49 4.64 49 7.28 49 10 C33.16 10 17.32 10 1 10 C0.67 6.7 0.34 3.4 0 0 Z " fill="#F90800" transform="translate(7,43)"/>
<path d="M0 0 C1.26714844 -0.01417969 2.53429688 -0.02835938 3.83984375 -0.04296875 C7.0625 0.1875 7.0625 0.1875 9.0625 2.1875 C8.8950552 5.28522875 8.02363391 7.26037392 6.5625 10 C3.70838863 12.49734745 2.95960091 12.5 -0.6875 12.5 C-2.79125 12.3453125 -2.79125 12.3453125 -4.9375 12.1875 C-5.9275 8.5575 -6.9175 4.9275 -7.9375 1.1875 C-6.00408053 -0.74591947 -2.56270879 0.01300867 0 0 Z " fill="#B0B6BC" transform="translate(31.9375,18.8125)"/>
<path d="M0 0 C0.33 0 0.66 0 1 0 C1 2.64 1 5.28 1 8 C17.17 8 33.34 8 50 8 C50 5.36 50 2.72 50 0 C50.66 0 51.32 0 52 0 C52 3.3 52 6.6 52 10 C34.84 10 17.68 10 0 10 C0 6.7 0 3.4 0 0 Z " fill="#FFF0EF" transform="translate(6,45)"/>
<path d="M0 0 C3.96 0 7.92 0 12 0 C11.22404875 3.10380501 10.4731994 5.25002779 9 8 C6.69 8 4.38 8 2 8 C0.74335022 5.09399739 0 3.20395416 0 0 Z " fill="#040404" transform="translate(27,21)"/>
<path d="M0 0 C4.62 0 9.24 0 14 0 C14 1.65 14 3.3 14 5 C9.38 5 4.76 5 0 5 C0 3.35 0 1.7 0 0 Z " fill="#0A0A0A" transform="translate(27,4)"/>
<path d="M0 0 C5.94 0 11.88 0 18 0 C18 2.31 18 4.62 18 7 C17.34 7 16.68 7 16 7 C16 5.35 16 3.7 16 2 C11.38 2 6.76 2 2 2 C2 3.65 2 5.3 2 7 C1.34 7 0.68 7 0 7 C0 4.69 0 2.38 0 0 Z " fill="#D8D8D8" transform="translate(25,2)"/>
<path d="M0 0 C4.62 0 9.24 0 14 0 C9.48332093 3.01111938 6.3360009 3.10067926 1 3 C0.67 2.01 0.34 1.02 0 0 Z " fill="#101010" transform="translate(28,0)"/>
<path d="M0 0 C1.67542976 0.28604898 3.34385343 0.61781233 5 1 C4.67 2.32 4.34 3.64 4 5 C2.02 5 0.04 5 -2 5 C-1.125 1.125 -1.125 1.125 0 0 Z " fill="#B1B8BE" transform="translate(30,35)"/>
<path d="M0 0 C2.31 0 4.62 0 7 0 C7 2.31 7 4.62 7 7 C6.34 7 5.68 7 5 7 C5 5.35 5 3.7 5 2 C3.35 1.67 1.7 1.34 0 1 C0 0.67 0 0.34 0 0 Z " fill="#C2C2C2" transform="translate(36,2)"/>
</svg>
